<svg width="375" height="279" fill="none" xmlns="http://www.w3.org/2000/svg"><g clip-path="url(#clip0)"><path opacity=".3" fill-rule="evenodd" clip-rule="evenodd" d="M-543.952 170.344V46.52h36.712c15.567 0 27.401 5.9 35.952 17.99 8.497 12.013 12.568 26.627 12.568 44.354 0 17.438-4.071 32.058-12.574 43.787-8.552 11.795-20.381 17.693-35.946 17.693h-36.712zm36.712 36.304c27.693 0 49.285-9.123 64.906-27.3 15.657-18.22 23.662-41.591 23.662-70.484 0-28.89-8.004-52.267-23.667-70.778-15.625-18.466-37.218-27.87-64.901-27.87H-584v196.432h76.76zm0 1c27.936 0 49.824-9.216 65.664-27.648 15.84-18.432 23.904-42.048 23.904-71.136 0-29.088-8.064-52.704-23.904-71.424-15.84-18.72-37.728-28.224-65.664-28.224H-585v198.432h77.76zm113.522 0V73.152h39.743v134.496h-39.743zm38.743-1V74.152h-37.743v132.496h37.743zM-373.846 1c-13.343 0-24.056 9.989-24.056 22.328 0 12.355 10.729 22.616 24.056 22.616 13.015 0 23.48-10.24 23.48-22.616 0-12.361-10.449-22.328-23.48-22.328zm181.332 152.504l.102-1.626c.25-3.941.474-7.461.474-10.758 0-21.024-6.624-38.016-19.872-50.976-12.96-13.248-29.376-19.872-48.96-19.872-19.872 0-36.576 6.336-50.112 19.296-13.536 12.96-20.16 29.664-20.16 50.4 0 20.736 6.624 37.728 20.16 50.976 13.536 12.96 30.24 19.584 50.112 19.584 28.078 0 48.336-8.938 60.773-26.539.18-.255.359-.512.536-.771l.035-.05-29.088-19.872c-6.624 8.352-16.416 12.672-29.376 12.672-15.477 0-30.404-7.423-32.961-21.464a22.9 22.9 0 01-.159-1h98.496zm-35.806 11.136c-6.835 8.16-16.742 12.328-29.57 12.328-16.035 0-31.993-7.893-34.111-23.328l-.156-1.136h98.703l.044-.689c.25-3.946.472-7.432.472-10.695 0-20.794-6.543-37.515-19.572-50.261l-.008-.008-.007-.008c-12.759-13.042-28.911-19.571-48.245-19.571-19.638 0-36.087 6.252-49.421 19.018-13.315 12.748-19.851 29.179-19.851 49.678s6.537 37.221 19.855 50.258c13.341 12.771 29.793 19.302 49.417 19.302 27.847 0 47.748-8.848 59.947-26.103l-27.497-18.785zm-63.341-35.192l.247-1.201c3.287-15.986 17.334-23.84 30.934-23.803 13.6.037 27.114 7.978 29.213 23.873l.149 1.131h-60.543zm1.227-1h58.176c-.045-.337-.095-.67-.15-1-4.878-29.204-50.73-29.473-57.804 0-.079.33-.153.663-.222 1zm132.586-54.296h-24.48v29.68h24.48v102.816h37.744V103.832h28.224v-29.68h-28.224V22.6h-37.744v51.552zm38.744-52.552v51.552h28.224v31.68h-28.224v102.816h-39.744V104.832h-24.48v-31.68h24.48V21.6h39.744zM33.779 207.648H-8.269V9.216H33.78v198.432zm-1-197.432H-7.269v196.432H32.78V10.216zm76.922 62.936H69.669v134.496h40.032v-71.136c0-18.144 8.352-27.36 24.768-27.36 14.112 0 23.328 9.504 23.328 26.784v71.712h40.032v-80.352c0-37.728-18.144-57.024-49.248-57.024-15.143 0-30.286 8.16-37.88 20.704a36.25 36.25 0 00-1 1.76V73.152zm87.128 133.496v-79.352c0-18.718-4.502-32.703-12.71-41.998-8.19-9.276-20.199-14.026-35.538-14.026-15.502 0-30.985 8.751-37.997 21.934l-1.883-.47V74.152H70.669v132.496h38.032v-70.136c0-9.207 2.117-16.33 6.487-21.155 4.386-4.844 10.887-7.205 19.281-7.205 7.29 0 13.412 2.462 17.7 7.244 4.277 4.769 6.628 11.729 6.628 20.54v70.712h38.032zm162.62-155.143l22.393 73.623h-43.866l21.473-73.623zm-34.657 108.199h69.93l17.569 46.944h42.222l-72.7-196.432h-44.401l-72.985 196.432h42.796l17.569-46.944zm-16.875 47.944h-44.928L336.717 9.216h45.792l73.44 198.432h-44.352l-17.568-46.944h-68.544l-17.568 46.944zm51.552-152.64l-20.16 69.12h41.184l-21.024-69.12zm280.635 46.038c17.641-7.414 25.536-21.974 25.536-36.534 0-33.696-23.04-55.296-58.752-55.296H527.4v198.432h85.248c19.296 0 34.56-5.76 46.08-17.568 11.52-11.808 17.28-26.208 17.28-43.2 0-9.216-3.168-18.144-9.792-27.072-6.054-8.531-14.738-14.432-26.051-17.704a66.319 66.319 0 00-1.597-.44c.52-.2 1.032-.406 1.536-.618zM528.4 206.648h84.248c19.08 0 34.067-5.686 45.364-17.266 11.332-11.615 16.996-25.762 16.996-42.502 0-8.966-3.076-17.69-9.595-26.476l-.006-.009-.006-.008c-6.181-8.71-15.183-14.638-27.086-17.756l-3.003-.786 2.897-1.114c18.326-7.049 26.431-21.649 26.431-36.219 0-16.611-5.673-30.157-15.669-39.555-10.003-9.404-24.428-14.741-42.083-14.741H528.4v196.432zm40.336-161.28h33.832c6.421 0 11.4 2.1 14.758 5.96 3.34 3.838 4.962 9.286 4.962 15.776 0 12.26-8.128 21.448-19.432 21.448h-34.12V45.368zm0 126.128V121.4h40.744c14.497 0 23.176 11.808 23.176 24.616 0 6.67-2 13.023-5.802 17.728-3.819 4.726-9.429 7.752-16.51 7.752h-41.608zm193.015.288c-17.538 0-31.24-12.825-31.24-31.816 0-18.12 13.696-31.528 31.24-31.528 17.532 0 31.528 13.395 31.528 31.528 0 18.997-13.708 31.816-31.528 31.816zm48.844 18.15c13.32-12.753 20.14-29.474 20.14-49.966 0-20.488-6.817-36.922-20.14-49.678-13.338-12.77-29.501-19.018-48.844-19.018s-35.506 6.247-48.844 19.018c-13.315 12.748-19.852 29.179-19.852 49.678 0 20.503 6.54 37.22 19.852 49.966 13.338 12.771 29.501 19.018 48.844 19.018s35.506-6.247 48.844-19.018zm77.311-116.782H841.25l44.352 61.632-52.992 72.864h46.368l28.8-41.184 28.512 41.184h46.368l-52.704-72.864 44.352-61.632h-46.368l-19.872 29.664-20.16-29.664zm40.566 1l-20.4 30.452-20.695-30.452h-44.175l43.635 60.635-52.263 71.861h43.883l29.325-41.935 29.032 41.935h43.887l-51.98-71.862 43.634-60.634h-43.883zm-1400.576-9.064c-8.352-11.808-19.872-17.568-35.136-17.568h-35.712v121.824h35.712c15.264 0 26.784-5.76 35.136-17.28 8.352-11.52 12.384-25.92 12.384-43.2 0-17.568-4.032-31.968-12.384-43.776zm73.202-41.76c0-12.96 11.231-23.328 25.056-23.328 13.535 0 24.48 10.368 24.48 23.328 0 12.96-10.945 23.616-24.48 23.616-13.825 0-25.056-10.656-25.056-23.616zm968.638 23.04v41.184h33.12c10.656 0 18.432-8.64 18.432-20.448 0-12.672-6.336-20.736-18.72-20.736h-32.832zm61.92 99.648c0-12.384-8.352-23.616-22.176-23.616h-39.744v48.096h40.608c13.536 0 21.312-11.52 21.312-24.48zm99.855-6.048c0 18.432 13.248 30.816 30.24 30.816 17.28 0 30.528-12.384 30.528-30.816 0-17.568-13.536-30.528-30.528-30.528-16.992 0-30.24 12.96-30.24 30.528zm100.224 0c0 20.736-6.912 37.728-20.448 50.688-13.536 12.96-29.952 19.296-49.536 19.296s-36-6.336-49.536-19.296c-13.536-12.96-20.16-29.952-20.16-50.688s6.624-37.44 20.16-50.4c13.536-12.96 29.952-19.296 49.536-19.296s36 6.336 49.536 19.296c13.536 12.96 20.448 29.664 20.448 50.4z" fill="#fff"/></g><defs><clipPath id="clip0"><path fill="#fff" d="M0 0h375v279H0z"/></clipPath></defs></svg>