<svg width="375" height="267" fill="none" xmlns="http://www.w3.org/2000/svg"><path opacity=".3" d="M-319.328 142.824v-1h-1v1h1zm19.872 44.352l-.656.755.009.008.647-.763zm112.608-8.64l-.788-.616-.001.002.789.614zm10.944-32.544l-1-.03v.007l1 .023zm-54.432-59.904l-.302.953.013.004.013.004.276-.961zm-23.616-7.488l.302-.953-.013-.005-.014-.004-.275.962zM-224 61.032h-1v1h1v-1zm42.048 0v1h1v-1h-1zM-200.96 16.68l-.662.75.008.007.654-.757zm-96.768.288l.645.764.01-.008-.655-.756zm31.68 99.648l-.297.955.015.005.015.004.267-.964zm23.904 6.624l.281-.96-.014-.004-.267.964zm23.904 22.464l-1-.029v.006l1 .023zm-58.752-2.88l.998-.064-.06-.936h-.938v1zm-43.336 0c0 18.425 6.743 33.391 20.216 45.107l1.312-1.51c-13.023-11.324-19.528-25.734-19.528-43.597h-2zm20.225 45.115c13.465 11.415 30.99 17.229 52.775 17.229v-2c-21.415 0-38.45-5.706-51.481-16.755l-1.294 1.526zm52.775 17.229c24.673 0 46.907-7.552 61.269-26.018l-1.578-1.228c-13.862 17.822-35.404 25.246-59.691 25.246v2zm61.268-26.016c7.352-9.411 10.864-20.572 11.156-33.137l-2-.046c-.284 12.203-3.684 22.93-10.732 31.951l1.576 1.232zm11.156-33.13c.439-14.78-3.959-27.35-13.219-37.566-9.239-10.192-23.254-17.97-41.937-23.33l-.552 1.923c18.469 5.297 32.102 12.927 41.007 22.751 8.884 9.8 13.126 21.854 12.701 36.162l2 .06zm-55.13-60.887l-23.616-7.488-.604 1.906 23.616 7.488.604-1.906zm-23.643-7.497c-6.977-1.993-12.136-4.599-15.538-7.795-3.373-3.168-5.049-6.94-5.049-11.403h-2c0 5.04 1.924 9.333 5.679 12.86 3.726 3.5 9.223 6.223 16.358 8.261l.55-1.923zm-20.587-19.198c0-10.748 9.96-18.872 24.632-18.872v-2c-15.28 0-26.632 8.58-26.632 20.872h2zm24.632-18.872c8.033 0 14.178 2.183 18.303 5.899 4.113 3.706 6.329 9.034 6.329 15.565h2c0-7.005-2.392-12.908-6.991-17.051-4.587-4.132-11.258-6.413-19.641-6.413v2zM-224 62.032h42.048v-2H-224v2zm43.048-1c0-18.975-6.437-33.953-19.354-45.109l-1.308 1.514c12.427 10.732 18.662 25.13 18.662 43.595h2zm-19.346-45.101C-212.899 4.795-229.278-.736-249.056-.736v2c19.39 0 35.267 5.413 47.434 16.165l1.324-1.498zM-249.056-.736c-19.494 0-36.155 5.533-49.327 16.948l1.31 1.512c12.748-11.05 28.919-16.46 48.017-16.46v-2zm-49.317 16.94c-13.187 11.136-19.939 25.529-19.939 43.388h2c0-17.276 6.496-31.108 19.229-41.86l-1.29-1.528zm-19.939 43.388c0 13.907 4.326 25.742 13.036 35.444 8.691 9.682 21.689 17.174 38.931 22.535l.594-1.91c-17.03-5.295-29.664-12.635-38.037-21.961-8.354-9.306-12.524-20.654-12.524-34.108h-2zm51.997 57.988l23.904 6.624.534-1.928-23.904-6.624-.534 1.928zm23.89 6.62c9.304 2.719 15.159 5.757 18.654 9.251 3.441 3.441 4.669 7.404 4.531 12.224l2 .058c.15-5.26-1.214-9.793-5.117-13.696-3.849-3.85-10.09-7.004-19.506-9.757l-.562 1.92zm23.185 21.481c-.136 6.004-2.92 10.977-7.758 14.477-4.862 3.517-11.84 5.57-20.33 5.57v2c8.79 0 16.212-2.123 21.502-5.95 5.314-3.844 8.434-9.383 8.586-16.051l-2-.046zm-28.088 20.047c-8.882 0-15.838-2.535-20.664-6.638-4.822-4.098-7.586-9.816-8.002-16.33l-1.996.128c.448 7.022 3.444 13.256 8.702 17.726 5.254 4.465 12.698 7.114 21.96 7.114v-2zm-29.664-23.904h-42.336v2h42.336v-2zm123.602 125.128h-1v1h1v-1zm39.744 0v1h1v-1h-1zm0-82.368l.872-.489-1.872-3.338v3.827h1zm85.248-.288l-.708-.707-.007.008.715.699zm0-101.088l-.715.7.007.007.708-.707zm-85.248 0h-1l1.881.472-.881-.472zm0-16.704h1v-1h-1v1zm-39.744 0v-1h-1v1h1zm41.608 67.68c0-18.198 13.405-31.544 30.103-31.544v-2c-17.861 0-32.103 14.302-32.103 33.544h2zm30.103-31.544c16.71 0 30.105 12.782 30.105 31.544h2c0-19.83-14.254-33.544-32.105-33.544v2zm30.105 31.544c0 18.174-13.383 30.968-30.105 30.968v2c17.839 0 32.105-13.702 32.105-32.968h-2zm-30.105 30.968c-16.74 0-30.103-11.948-30.103-30.968h-2c0 20.148 14.283 32.968 32.103 32.968v-2zm-71.711 102.8h39.744v-2h-39.744v2zm40.744-1v-82.368h-2v82.368h2zm-1.873-81.879c6.855 12.22 22.813 19.807 40.329 19.807v-2c-17.045 0-32.191-7.389-38.584-18.785l-1.745.978zm40.329 19.807c18.135 0 33.654-6.74 46.507-19.885l-1.43-1.398c-12.492 12.775-27.5 19.283-45.078 19.283v2zm46.499-19.877c13.179-13.179 19.588-30.442 19.588-51.683h-2c0 20.807-6.262 37.528-19.003 50.269l1.415 1.414zm19.588-51.683c0-20.674-6.415-37.645-19.588-50.82l-1.415 1.415c12.747 12.746 19.004 29.183 19.004 49.405h2zm-19.58-50.811c-12.853-13.145-28.372-19.885-46.508-19.885v2c17.577 0 32.586 6.508 45.078 19.283l1.43-1.398zm-46.508-19.885c-17.504 0-33.48 7.293-40.337 20.112l1.763.944c6.391-11.949 21.52-19.056 38.575-19.056v-2zm-38.455 20.584V66.504h-2v16.704h2zm-1-17.704h-39.744v2h39.744v-2zm-40.744 1v200.448h2V66.504h-2zm262.954 90.144l.564-.826-.769-.525-.579.73.784.621zm-62.496-9.792v-1H44.92l.156 1.136.99-.136zm98.496 0v1h.939l.059-.938-.998-.062zm-19.296-63.36l-.715.7.007.007.008.008.7-.715zm-99.073-.576l-.691-.722.691.722zm0 101.376l-.699.715.008.007.691-.722zm111.457-7.776l.825.564.564-.826-.825-.564-.564.826zM46.644 121.8l-.98-.201-.247 1.201h1.227v-1zm58.176 0v1h1.14l-.149-1.131-.991.131zm2.96 34.227c-6.398 8.067-15.875 12.293-28.593 12.293v2c13.203 0 23.31-4.414 30.16-13.051l-1.567-1.242zM79.187 168.32c-15.645 0-30.215-7.659-32.129-21.6l-1.981.272c2.118 15.435 18.076 23.328 34.11 23.328v-2zm-33.12-20.464h98.497v-2H46.068v2zm99.495-.938c.286-4.59.578-8.662.578-12.446h-2c0 3.704-.285 7.696-.575 12.322l1.997.124zm.578-12.446c0-21.254-6.706-38.517-20.173-51.69l-1.399 1.429c13.029 12.746 19.572 29.467 19.572 50.261h2zm-20.158-51.675c-13.161-13.454-29.84-20.173-49.674-20.173v2c19.334 0 35.486 6.529 48.245 19.571l1.429-1.398zM76.308 62.624c-20.107 0-37.066 6.42-50.804 19.574l1.383 1.444c13.334-12.766 29.783-19.018 49.42-19.018v-2zM25.504 82.198C11.747 95.37 5.036 112.347 5.036 133.32h2c0-20.499 6.536-36.93 19.851-49.678l-1.383-1.444zM5.036 133.32c0 20.971 6.709 38.232 20.46 51.691l1.399-1.43c-13.321-13.037-19.86-29.76-19.86-50.261h-2zm20.468 51.698c13.73 13.146 30.686 19.862 50.803 19.862v-2c-19.625 0-36.078-6.532-49.42-19.306l-1.383 1.444zm50.803 19.862c28.738 0 49.548-9.303 62.17-27.796l-1.651-1.128c-12.146 17.795-32.232 26.924-60.518 26.924v2zm61.909-29.186l-29.088-19.872-1.129 1.652 29.088 19.872 1.129-1.652zm-90.593-53.693c3.05-14.83 16.074-22.24 28.97-22.205 12.896.035 25.302 7.502 27.235 22.135l1.983-.262c-2.099-15.895-15.613-23.836-29.213-23.873-13.6-.037-27.647 7.817-30.934 23.803l1.959.402zm57.197-1.201H46.644v2h58.176v-2zM254.811 201h-1v1h1v-1zm40.032 0v1h1v-1h-1zM206.715 86.088h-1l1.883.47-.883-.47zm0-19.584h1v-1h-1v1zm-40.032 0v-1h-1v1h1zm0 134.496h-1v1h1v-1zm40.032 0v1h1v-1h-1zm1-71.136c0-8.937 2.059-15.494 5.97-19.813 3.893-4.3 9.776-6.547 17.798-6.547v-2c-8.393 0-14.895 2.361-19.281 7.205-4.369 4.825-6.487 11.948-6.487 21.155h2zm23.768-26.36c6.822 0 12.364 2.29 16.212 6.58 3.859 4.303 6.116 10.735 6.116 19.204h2c0-8.811-2.35-15.771-6.627-20.54-4.289-4.782-10.41-7.244-17.701-7.244v2zm22.328 25.784V201h2v-71.712h-2zm1 72.712h40.032v-2h-40.032v2zm41.032-1v-80.352h-2V201h2zm0-80.352c0-19.01-4.57-33.537-13.21-43.322-8.658-9.804-21.272-14.702-37.038-14.702v2c15.339 0 27.348 4.75 35.539 14.026 8.207 9.295 12.709 23.28 12.709 41.998h2zm-50.248-58.024c-16.178 0-32.375 9.105-39.763 22.994l1.766.94c7.012-13.183 22.495-21.934 37.997-21.934v-2zm-37.88 23.464V66.504h-2v19.584h2zm-1-20.584h-40.032v2h40.032v-2zm-41.032 1V201h2V66.504h-2zm1 135.496h40.032v-2h-40.032v2zm41.032-1v-71.136h-2V201h2zm287.68 0h-1v1h1v-1zm39.744 0v1h1v-1h-1zm-92.16-113.472l-.904.427.786 1.665.968-1.566-.85-.526zm-78.336-1.44h-1l1.916.4-.916-.4zm0-19.584h1v-1h-1v1zm-40.032 0v-1h-1v1h1zm0 134.496h-1v1h1v-1zm40.032 0v1h1v-1h-1zm45.504-72.576h1v-.018l-1 .018zm0 72.576h-1v1h1v-1zm40.032 0v1h1v-1h-1zm23.04-97.496c6.063 0 11.325 2.335 15.084 6.675 3.768 4.35 6.092 10.795 6.092 19.109h2c0-8.678-2.429-15.625-6.58-20.419-4.161-4.804-9.987-7.365-16.596-7.365v2zm21.176 25.784V201h2v-71.712h-2zm1 72.712h39.744v-2h-39.744v2zm40.744-1v-76.32h-2V201h2zm0-76.32c0-20.163-4.859-35.693-13.961-46.195-9.12-10.524-22.382-15.861-38.879-15.861v2c16.046 0 28.705 5.175 37.368 15.17 8.682 10.019 13.472 25.017 13.472 44.886h2zm-52.84-62.056c-17.379 0-31.219 8.28-41.171 24.378l1.701 1.052c9.632-15.582 22.865-23.43 39.47-23.43v-2zm-39.416 24.477c-3.829-8.099-9.444-14.167-16.842-18.2-7.385-4.024-16.489-5.989-27.262-5.989v2c10.539 0 19.291 1.923 26.305 5.746 7.002 3.816 12.331 9.556 15.991 17.297l1.808-.854zm-44.104-24.189c-15.334 0-29.83 8.552-36.052 22.775l1.832.802c5.873-13.425 19.602-21.577 34.22-21.577v-2zm-34.136 23.176V66.504h-2v19.584h2zm-1-20.584h-40.032v2h40.032v-2zm-41.032 1V201h2V66.504h-2zm1 135.496h40.032v-2h-40.032v2zm41.032-1v-71.136h-2V201h2zm0-71.136c0-9.489 2.407-16.049 6.318-20.233 3.904-4.175 9.44-6.127 16.01-6.127v-2c-6.967 0-13.094 2.08-17.471 6.761-4.368 4.672-6.857 11.792-6.857 21.599h2zm22.328-26.36c5.913 0 11.11 2.331 14.876 6.576 3.772 4.252 6.159 10.488 6.3 18.362l2-.036c-.148-8.254-2.657-14.978-6.804-19.654-4.155-4.683-9.902-7.248-16.372-7.248v2zm21.176 24.92V201h2v-72.576h-2zm1 73.576h40.032v-2h-40.032v2zm41.032-1v-71.136h-2V201h2zm0-71.136c0-9.06 2.265-15.632 6.083-19.928 3.804-4.279 9.268-6.432 15.957-6.432v-2c-7.135 0-13.192 2.311-17.452 7.104-4.245 4.776-6.588 11.884-6.588 21.256h2zm224.652 54.144l-.691-.722.691.722zm0-101.088l.692-.722-.692.722zm-99.072 0l-.691-.722.691.722zm0 101.088l.692-.722-.692.722zm49.536-20.872c-16.446 0-29.24-11.943-29.24-29.816h-2c0 18.991 13.702 31.816 31.24 31.816v-2zm-29.24-29.816c0-17.016 12.801-29.528 29.24-29.528v-2c-17.544 0-31.24 13.408-31.24 31.528h2zm29.24-29.528c16.452 0 29.528 12.525 29.528 29.528h2c0-18.133-13.996-31.528-31.528-31.528v2zm29.528 29.528c0 17.867-12.787 29.816-29.528 29.816v2c17.82 0 31.528-12.819 31.528-31.816h-2zm20.7 51.41c13.753-13.167 20.756-30.43 20.756-51.41h-2c0 20.492-6.82 37.213-20.139 49.966l1.383 1.444zm20.756-51.41c0-20.984-7.006-37.957-20.756-51.122l-1.383 1.444c13.322 12.755 20.139 29.19 20.139 49.678h2zm-20.756-51.122c-13.734-13.15-30.402-19.574-50.228-19.574v2c19.343 0 35.506 6.247 48.845 19.018l1.383-1.444zm-50.228-19.574c-19.825 0-36.494 6.425-50.227 19.574l1.383 1.444c13.338-12.77 29.502-19.018 48.844-19.018v-2zm-50.227 19.574c-13.758 13.172-20.469 30.149-20.469 51.122h2c0-20.499 6.537-36.93 19.852-49.678l-1.383-1.444zm-20.469 51.122c0 20.969 6.709 38.236 20.469 51.41l1.383-1.444c-13.312-12.746-19.852-29.463-19.852-49.966h-2zm20.469 51.41c13.733 13.149 30.402 19.574 50.227 19.574v-2c-19.342 0-35.506-6.247-48.844-19.018l-1.383 1.444zm50.227 19.574c19.826 0 36.494-6.425 50.228-19.574l-1.383-1.444c-13.339 12.771-29.502 19.018-48.845 19.018v2z" fill="#fff"/></svg>