<svg width="375" height="321" fill="none" xmlns="http://www.w3.org/2000/svg"><g clip-path="url(#clip0)"><path opacity=".1" fill-rule="evenodd" clip-rule="evenodd" d="M-943.952 195.344V71.52h36.712c15.567 0 27.401 5.9 35.952 17.99 8.497 12.013 12.568 26.627 12.568 44.354 0 17.438-4.071 32.058-12.574 43.787-8.552 11.795-20.381 17.693-35.946 17.693h-36.712zm36.712 36.304c27.693 0 49.285-9.123 64.906-27.3 15.657-18.22 23.662-41.591 23.662-70.484 0-28.891-8.004-52.267-23.667-70.778-15.625-18.466-37.218-27.87-64.901-27.87H-984v196.432h76.76zm0 1c27.936 0 49.824-9.216 65.664-27.648 15.84-18.432 23.904-42.048 23.904-71.136 0-29.088-8.064-52.704-23.904-71.424-15.84-18.72-37.728-28.224-65.664-28.224H-985v198.432h77.76zm244.267-54.144l.102-1.626c.25-3.941.474-7.461.474-10.758 0-21.024-6.624-38.016-19.872-50.976-12.96-13.248-29.376-19.872-48.96-19.872-19.872 0-36.576 6.336-50.112 19.296-13.536 12.96-20.16 29.664-20.16 50.4 0 20.736 6.624 37.728 20.16 50.976 13.536 12.96 30.24 19.584 50.112 19.584 28.078 0 48.336-8.938 60.773-26.539.192-.271.382-.545.571-.821l-29.088-19.872c-6.624 8.352-16.416 12.672-29.376 12.672-15.477 0-30.404-7.423-32.961-21.464a22.9 22.9 0 01-.159-1h98.496zm-35.806 11.136c-6.835 8.16-16.741 12.328-29.57 12.328-16.035 0-31.992-7.893-34.111-23.328l-.156-1.136h98.704l.044-.691c.25-3.945.471-7.43.471-10.693 0-20.794-6.542-37.515-19.572-50.261l-.007-.008-.008-.008c-12.759-13.042-28.911-19.571-48.245-19.571-19.637 0-36.087 6.252-49.421 19.018-13.314 12.748-19.851 29.179-19.851 49.678s6.537 37.22 19.855 50.257c13.341 12.772 29.793 19.303 49.417 19.303 27.848 0 47.748-8.848 59.948-26.103l-27.498-18.785zm-63.341-35.192l.247-1.201c3.287-15.986 17.334-23.84 30.934-23.803 13.6.037 27.114 7.978 29.213 23.873l.15 1.131h-60.544zm1.227-1h58.176c-.045-.337-.095-.67-.15-1-4.878-29.204-50.73-29.473-57.804 0-.079.33-.153.663-.222 1zm172.719 27.547c4.788 1.306 8.28 2.793 10.578 4.78 2.364 2.044 3.407 4.562 3.407 7.705 0 3.726-2.041 6.745-5.203 8.827-3.144 2.071-7.441 3.256-12.182 3.405h-.031c-5.559 0-10.675-1.952-14.449-4.971-3.489-2.791-5.892-6.549-6.351-10.581h-35.482c.519 13.361 5.865 24.23 16.558 32.182 11.042 8.21 24.075 12.186 38.572 12.186 15.385 0 28.733-3.702 40.078-10.792l.009-.006c11.511-7.019 17.089-17.064 17.089-30.25 0-3.979-.286-7.716-1.977-11.823-1.695-4.116-4.835-8.684-10.673-14.236-5.62-5.34-13.238-9.585-23.176-12.14l-.007-.003-22.752-6.048h-.003c-3.81-1.026-6.848-2.371-8.986-4.159-2.171-1.816-3.399-4.079-3.561-6.828v-.011c-.161-3.381 1.307-6.217 4.014-8.167 2.671-1.925 6.499-2.961 11.097-2.961 5.149 0 9.152 1.026 11.921 3.202 2.584 2.03 3.961 4.954 4.282 8.606h35.761c-.502-14.483-5.85-25.044-15.948-31.867-10.468-7.073-23.226-10.773-38.32-10.773-13.906 0-25.79 3.968-35.976 11.608-10.202 7.651-15.164 16.034-15.441 25.725v.005c-.143 4.15-.068 7.302.558 10.54.626 3.233 1.812 6.602 3.948 11.16 4.412 8.528 16.43 16.2 35.068 21.075l17.578 4.61zm-53.543-25.243c-4.32-9.216-4.896-13.824-4.609-22.176.289-10.08 5.473-18.72 15.84-26.496 10.369-7.776 22.465-11.808 36.577-11.808 15.264 0 28.224 3.744 38.88 10.944 10.421 7.042 15.885 17.941 16.389 32.696.011.331.02.665.027 1h-37.728c-.288-7.776-5.184-11.808-15.264-11.808-8.928 0-14.4 4.032-14.112 10.08.287 4.896 4.32 8.064 11.808 10.08l22.752 6.048c10.08 2.592 17.856 6.912 23.615 12.384 11.809 11.232 12.961 18.72 12.961 26.784 0 13.536-5.76 23.904-17.568 31.104-11.52 7.2-25.056 10.944-40.608 10.944-14.688 0-27.936-4.032-39.168-12.384-10.966-8.154-16.442-19.327-16.963-32.984a47.095 47.095 0 01-.029-1h37.44c.288 8.064 9.216 15.552 19.872 15.552 9.216-.288 16.416-4.608 16.416-11.232 0-5.76-3.745-8.928-13.249-11.52l-17.567-4.608c-18.72-4.896-31.104-12.672-35.712-21.6zm129.541 76.896V98.152h39.744v134.496h-39.744zm38.744-1V99.152h-37.744v132.496h37.744zM-492.304 26c-13.343 0-24.056 9.989-24.056 22.328 0 12.355 10.73 22.616 24.056 22.616 13.015 0 23.48-10.24 23.48-22.616 0-12.361-10.449-22.328-23.48-22.328zm140.255 163.315l-.009.007c-6.788 6.198-14.51 9.478-23.426 9.478-18.103 0-33.256-13.678-33.256-33.832 0-19.025 15.178-32.68 33.256-32.68 18.048 0 33.544 12.762 33.544 32.68 0 9.759-3.267 17.802-10.101 24.339l-.008.008zm8.973-76.1c-7.172-10.882-22.854-17.943-39.32-17.943-18.144 0-33.696 6.624-47.232 19.872-13.248 12.96-19.872 29.952-19.872 50.688 0 20.448 6.624 37.152 19.872 50.112 13.536 12.96 29.088 19.584 47.232 19.584 16.479 0 32.696-7.072 39.409-17.968.327-.53.631-1.068.911-1.616.04.631.074 1.256.103 1.874 1.418 30.713-11 45.934-37.255 45.934-13.475 0-28.591-8.756-33.614-20.668-.13-.308-.254-.619-.37-.932l-32.256 15.84c11.52 25.344 36.576 41.76 66.24 41.76 48.672 0 76.032-29.088 76.032-85.824V98.152h-38.88v16.704a27.223 27.223 0 00-1-1.641zm2-14.063v19.531l-1.872-3.338c-6.391-11.391-22.397-19.073-39.448-19.073-17.865 0-33.171 6.509-46.533 19.587-13.03 12.747-19.571 29.469-19.571 49.973 0 20.207 6.535 36.641 19.566 49.392 13.364 12.794 28.672 19.304 46.538 19.304 8.497 0 16.917-1.913 23.941-5.266 7.034-3.358 12.594-8.122 15.489-13.774l1.659-3.239.229 3.632c1.015 16.092-1.576 28.335-7.985 36.569-6.44 8.275-16.575 12.302-30.165 12.302-7.122 0-14.647-2.369-20.976-6.307-5.988-3.725-10.984-8.904-13.537-14.919l-30.409 14.933c11.53 24.479 35.988 40.293 64.922 40.293 24.133 0 42.838-7.205 55.525-21.305 12.702-14.117 19.507-35.297 19.507-63.519V99.152h-36.88zm109.131-1h-40.032v134.496h40.032v-71.136c0-18.144 8.352-27.36 24.768-27.36 14.112 0 23.328 9.504 23.328 26.784v71.712h40.032v-80.352c0-37.728-18.144-57.024-49.248-57.024-15.143 0-30.286 8.16-37.88 20.704-.35.578-.683 1.164-1 1.76V98.152zm87.128 133.496v-79.352c0-18.718-4.502-32.703-12.71-41.998-8.19-9.276-20.2-14.026-35.538-14.026-15.502 0-30.985 8.751-37.997 21.934l-1.883-.47V99.152h-38.032v132.496h38.032v-70.136c0-9.207 2.117-16.33 6.487-21.155 4.386-4.844 10.887-7.205 19.281-7.205 7.29 0 13.412 2.462 17.7 7.244 4.277 4.769 6.628 11.729 6.628 20.54v70.712h38.032zm166.744-76.76c18.72 5.472 24.192 12.384 23.904 22.464-.288 12.672-11.808 21.024-29.088 21.024-18.144 0-28.8-10.368-29.664-23.904h-42.336c0 .335.002.668.006 1 .24 17.685 6.862 32.044 19.866 43.352 13.248 11.232 30.528 16.992 52.128 16.992 24.48 0 46.368-7.488 60.48-25.632 7.2-9.216 10.656-20.16 10.944-32.544.864-29.088-17.28-49.248-54.432-59.904l-23.616-7.488c-14.112-4.032-21.312-10.656-21.312-20.16 0-11.52 10.656-19.872 25.632-19.872 16.416 0 25.632 8.928 25.632 22.464h42.048c0-.335-.002-.668-.006-1-.223-18.244-6.557-32.604-19.002-43.352-12.384-10.944-28.512-16.416-48.096-16.416-19.296 0-35.712 5.472-48.672 16.704-12.96 10.944-19.584 25.056-19.584 42.624 0 27.36 16.992 46.368 51.264 57.024l23.904 6.624zm-23.622-7.584l.015.005 23.874 6.615.013.004c9.416 2.753 15.657 5.907 19.507 9.757 3.903 3.903 5.267 8.436 5.116 13.696-.153 6.665-3.273 12.203-8.585 16.045-5.29 3.827-12.713 5.95-21.502 5.95-9.263 0-16.706-2.649-21.96-7.114-5.023-4.27-7.982-10.15-8.627-16.79H-54.25c.239 17.4 6.74 31.482 19.517 42.594 13.03 11.045 30.064 16.75 51.476 16.75 24.287 0 45.829-7.424 59.69-25.246l.002-.002c7.048-9.021 10.448-19.748 10.732-31.951v-.007c.425-14.308-3.817-26.362-12.701-36.162-8.905-9.824-22.538-17.454-41.007-22.751l-.013-.004-.014-.004-23.588-7.479a.073.073 0 00-.014-.004c-7.129-2.039-12.621-4.76-16.344-8.257-3.756-3.528-5.68-7.82-5.68-12.861 0-12.292 11.353-20.872 26.633-20.872 8.383 0 15.054 2.281 19.641 6.413 4.378 3.944 6.756 9.484 6.974 16.051h40.059c-.222-17.986-6.455-32.058-18.656-42.595l-.008-.008C50.282 38.325 34.404 32.912 15.015 32.912c-19.098 0-35.269 5.41-48.017 16.46l-.01.008c-12.733 10.752-19.23 24.583-19.23 41.86 0 13.453 4.17 24.802 12.525 34.108 8.37 9.324 21 16.662 38.022 21.956zm152.119-49.152H110.68V298.6h39.744v-82.368a29.26 29.26 0 001 1.648c7.101 10.852 21.994 17.648 38.456 17.648 17.856 0 33.12-6.624 45.792-19.584 12.96-12.96 19.296-29.952 19.296-50.976 0-20.448-6.336-37.152-19.296-50.112-12.672-12.96-27.936-19.584-45.792-19.584-16.462 0-31.355 6.534-38.456 17.86a29.822 29.822 0 00-1 1.724V98.152zm-1 199.448v-85.195l1.872 3.338c6.393 11.396 21.54 18.785 38.584 18.785 17.577 0 32.586-6.508 45.077-19.283l.008-.008c12.741-12.741 19.003-29.462 19.003-50.269 0-20.222-6.256-36.659-19.003-49.405l-.008-.008c-12.491-12.775-27.5-19.283-45.077-19.283-17.055 0-32.183 7.107-38.574 19.056l-1.882-.472V99.152H111.68V297.6h37.744zm.864-131.768c0-19.242 14.243-33.544 32.104-33.544 17.85 0 32.104 13.714 32.104 33.544 0 19.266-14.265 32.968-32.104 32.968-17.82 0-32.104-12.82-32.104-32.968zm167.914-67.68H278.17v134.496h40.032v-46.944c0-35.712 11.232-53.568 33.408-53.568 7.612 0 14.197 1.283 19.514 3.607.316.138.627.28.934.425l7.2-36c-6.624-3.168-14.112-4.896-23.04-4.896-14.544 0-29.872 10.981-37.016 32.197a71.778 71.778 0 00-1 3.227V98.152zm59.922 2.589l-6.8 33.999c-5.432-2.335-12.089-3.604-19.714-3.604-11.41 0-20.093 4.623-25.868 13.862-5.726 9.162-8.54 22.777-8.54 40.706v45.944H279.17V99.152h38.032v31.544l1.962.273c6.537-23.021 22.354-34.697 37.054-34.697 8.476 0 15.601 1.58 21.906 4.469zm16.068 131.907V98.152h39.744v134.496h-39.744zm38.744-1V99.152h-37.744v132.496h37.744zM414.063 26c-13.342 0-24.055 9.989-24.055 22.328 0 12.355 10.729 22.616 24.055 22.616 13.016 0 23.481-10.24 23.481-22.616 0-12.361-10.449-22.328-23.481-22.328zm90.901 72.152h-40.032v134.496h40.032v-71.136c0-18.144 8.352-27.36 24.768-27.36 14.112 0 23.328 9.504 23.328 26.784v71.712h40.032v-80.352c0-37.728-18.144-57.024-49.248-57.024-15.143 0-30.286 8.16-37.88 20.704-.35.578-.684 1.164-1 1.76V98.152zm87.128 133.496v-79.352c0-18.718-4.502-32.703-12.71-41.998-8.191-9.276-20.2-14.026-35.538-14.026-15.503 0-30.986 8.751-37.998 21.934l-1.882-.47V99.152h-38.032v132.496h38.032v-70.136c0-9.207 2.117-16.33 6.486-21.155 4.386-4.844 10.888-7.205 19.282-7.205 7.29 0 13.411 2.462 17.7 7.244 4.277 4.769 6.628 11.729 6.628 20.54v70.712h38.032zm44.439-132.496h-24.48v29.68h24.48v102.816h37.744V128.832h28.224v-29.68h-28.224V47.6h-37.744v51.552zM675.275 46.6v51.552h28.224v31.68h-28.224v102.816h-39.744V129.832h-24.48v-31.68h24.48V46.6h39.744zm99.691 134.395c4.788 1.306 8.28 2.793 10.578 4.78 2.364 2.044 3.406 4.562 3.406 7.705 0 3.726-2.04 6.745-5.201 8.827-3.145 2.071-7.442 3.256-12.183 3.405h-.031c-5.559 0-10.675-1.952-14.449-4.971-3.489-2.791-5.892-6.549-6.351-10.581h-35.483c.52 13.361 5.866 24.23 16.559 32.182 11.042 8.21 24.075 12.186 38.571 12.186 15.386 0 28.734-3.702 40.078-10.792l.01-.006c11.511-7.019 17.088-17.064 17.088-30.25 0-3.979-.285-7.716-1.976-11.823-1.695-4.116-4.835-8.684-10.673-14.236-5.62-5.339-13.237-9.585-23.176-12.14l-.007-.003-22.755-6.048c-3.81-1.026-6.848-2.371-8.986-4.159-2.171-1.816-3.399-4.079-3.561-6.828v-.011c-.161-3.381 1.307-6.217 4.014-8.167 2.671-1.925 6.499-2.961 11.097-2.961 5.149 0 9.152 1.026 11.921 3.202 2.584 2.03 3.961 4.954 4.282 8.606H823.5c-.503-14.483-5.851-25.044-15.949-31.867-10.468-7.073-23.226-10.773-38.321-10.773-13.905 0-25.788 3.968-35.975 11.608-10.202 7.651-15.164 16.034-15.441 25.725v.005c-.143 4.15-.068 7.302.558 10.54.626 3.233 1.812 6.602 3.948 11.16 4.412 8.529 16.43 16.2 35.068 21.075l17.578 4.61zm-53.544-25.243c-4.319-9.216-4.896-13.824-4.608-22.176.289-10.08 5.472-18.72 15.841-26.496 10.367-7.776 22.464-11.808 36.575-11.808 15.265 0 28.224 3.744 38.88 10.944 10.422 7.042 15.886 17.941 16.39 32.696.011.331.02.665.026 1h-37.728c-.288-7.776-5.183-11.808-15.263-11.808-8.929 0-14.4 4.032-14.113 10.08.288 4.896 4.321 8.064 11.808 10.08l22.753 6.048c10.079 2.592 17.856 6.912 23.616 12.384 11.807 11.232 12.959 18.72 12.959 26.784 0 13.536-5.76 23.904-17.568 31.104-11.52 7.2-25.056 10.944-40.608 10.944-14.688 0-27.935-4.032-39.168-12.384-10.965-8.154-16.441-19.327-16.962-32.984a47.095 47.095 0 01-.029-1h37.439c.288 8.064 9.217 15.552 19.873 15.552 9.215-.288 16.415-4.608 16.415-11.232 0-5.76-3.743-8.928-13.247-11.52l-17.568-4.608c-18.72-4.896-31.104-12.672-35.713-21.6zM-872.104 90.088c-8.352-11.808-19.872-17.568-35.136-17.568h-35.712v121.824h35.712c15.264 0 26.784-5.76 35.136-17.28 8.352-11.52 12.384-25.92 12.384-43.2 0-17.568-4.032-31.968-12.384-43.776zm354.744-41.76c0-12.96 11.232-23.328 25.056-23.328 13.536 0 24.48 10.368 24.48 23.328 0 12.96-10.944 23.616-24.48 23.616-13.824 0-25.056-10.656-25.056-23.616zm164.628 140.256c6.624-6.336 9.792-14.112 9.792-23.616 0-19.296-14.976-31.68-32.544-31.68-17.568 0-32.256 13.248-32.256 31.68 0 19.584 14.688 32.832 32.256 32.832 8.64 0 16.128-3.168 22.752-9.216zm535.124-55.296c-17.28 0-31.104 13.824-31.104 32.544 0 19.584 13.824 31.968 31.104 31.968s31.104-13.248 31.104-31.968c0-19.296-13.824-32.544-31.104-32.544zm206.616-84.96c0-12.96 11.232-23.328 25.055-23.328 13.536 0 24.481 10.368 24.481 23.328 0 12.96-10.945 23.616-24.481 23.616-13.823 0-25.055-10.656-25.055-23.616z" fill="#fff"/></g><defs><clipPath id="clip0"><path fill="#fff" d="M0 0h375v321H0z"/></clipPath></defs></svg>