<svg width="375" height="210" fill="none" xmlns="http://www.w3.org/2000/svg"><g clip-path="url(#clip0)"><path opacity=".1" fill-rule="evenodd" clip-rule="evenodd" d="M-299.664 103.24V45.368h39.304c15.45 0 24.904 14.795 24.904 28.936 0 14.487-10.078 28.936-26.056 28.936h-38.152zm0 34.864h40.168c21.103 0 36.927-6.265 47.924-18.671 11.056-12.475 16.452-27.497 16.452-45.129 0-17.632-5.396-32.654-16.452-45.129l-.008-.008c-10.995-12.687-26.814-18.951-47.916-18.951H-340v196.432h40.336v-68.544zm1 69.544H-341V9.216h81.504c21.312 0 37.44 6.336 48.672 19.296 11.232 12.672 16.704 27.936 16.704 45.792s-5.472 33.12-16.704 45.792c-11.232 12.672-27.36 19.008-48.672 19.008h-39.168v68.544zm180.765-35.864c-17.538 0-31.24-12.825-31.24-31.816 0-18.12 13.696-31.528 31.24-31.528 17.532 0 31.528 13.395 31.528 31.528 0 18.997-13.708 31.816-31.528 31.816zm48.844 18.15c13.32-12.753 20.14-29.474 20.14-49.966 0-20.488-6.818-36.922-20.14-49.678-13.338-12.77-29.501-19.018-48.844-19.018s-35.506 6.247-48.844 19.018c-13.315 12.748-19.852 29.179-19.852 49.678 0 20.503 6.54 37.22 19.852 49.966 13.338 12.771 29.501 19.018 48.844 19.018s35.506-6.247 48.844-19.018zM15.054 73.152h-40.032v134.496h40.032v-46.944c0-35.712 11.231-53.568 33.407-53.568 7.612 0 14.197 1.283 19.514 3.607.316.138.627.28.934.425l7.2-36C69.486 72 61.998 70.272 53.07 70.272c-14.543 0-29.872 10.981-37.016 32.197a70.136 70.136 0 00-1 3.227V73.152zm59.921 2.589l-6.8 33.999c-5.431-2.335-12.089-3.604-19.713-3.604-11.41 0-20.094 4.623-25.869 13.862-5.726 9.162-8.54 22.777-8.54 40.706v45.944h-38.031V74.152h38.032v31.544l1.961.273C22.552 82.948 38.37 71.272 53.07 71.272c8.475 0 15.6 1.58 21.905 4.469zm29.74-1.589h-24.48v29.68h24.48v102.816h37.744V103.832h28.224v-29.68h-28.224V22.6h-37.744v51.552zM143.459 21.6v51.552h28.224v31.68h-28.224v102.816h-39.744V104.832h-24.48v-31.68h24.48V21.6h39.744zm61.547 52.552h-25.344v29.68h25.344v102.816h38.32V103.832h27.072v-29.68h-27.072V63.936c0-8.606 1.747-15.277 5.367-19.812 3.653-4.576 9.086-6.82 16.081-6.82h13.688V1h-13.688c-19.244 0-34.145 5.626-44.24 16.214-10.102 10.595-15.528 26.3-15.528 46.722v10.216zM264.774 0c-38.88 0-60.768 22.752-60.768 63.936v9.216h-25.344v31.68h25.344v102.816h40.32V104.832h27.072v-31.68h-27.072v-9.216c0-16.992 6.912-25.632 20.448-25.632h14.688V0h-14.688zm85.35 171.784c-17.538 0-31.241-12.825-31.241-31.816 0-18.12 13.696-31.528 31.241-31.528 17.531 0 31.527 13.395 31.527 31.528 0 18.997-13.708 31.816-31.527 31.816zm48.844 18.15c13.319-12.753 20.14-29.474 20.14-49.966 0-20.488-6.818-36.922-20.14-49.678-13.338-12.77-29.502-19.018-48.844-19.018-19.343 0-35.506 6.247-48.845 19.018-13.315 12.748-19.852 29.179-19.852 49.678 0 20.503 6.54 37.22 19.852 49.966 13.339 12.771 29.502 19.018 48.845 19.018 19.342 0 35.506-6.247 48.844-19.018zm84.108 17.714h-40.032V0h40.032v207.648zM482.076 1h-38.032v205.648h38.032V1zm31.989 206.648V73.152h39.744v134.496h-39.744zm38.744-1V74.152h-37.744v132.496h37.744zM533.937 1c-13.343 0-24.056 9.989-24.056 22.328 0 12.355 10.73 22.616 24.056 22.616 13.015 0 23.48-10.24 23.48-22.616C557.417 10.967 546.969 1 533.937 1zm112.5 170.784c-17.538 0-31.24-12.825-31.24-31.816 0-18.12 13.696-31.528 31.24-31.528 17.532 0 31.528 13.395 31.528 31.528 0 18.997-13.708 31.816-31.528 31.816zm48.845 18.15c13.319-12.753 20.139-29.474 20.139-49.966 0-20.488-6.817-36.922-20.139-49.678-13.339-12.77-29.502-19.018-48.845-19.018-19.342 0-35.506 6.247-48.844 19.018-13.315 12.748-19.852 29.179-19.852 49.678 0 20.503 6.54 37.22 19.852 49.966 13.338 12.771 29.502 19.018 48.844 19.018 19.343 0 35.506-6.247 48.845-19.018zm-931.738-115.63c0-13.824-9.216-27.936-23.904-27.936h-38.304v55.872h37.152c15.264 0 25.056-13.824 25.056-27.936zm88.317 65.664c0 18.432 13.248 30.816 30.24 30.816 17.28 0 30.528-12.384 30.528-30.816 0-17.568-13.536-30.528-30.528-30.528-16.992 0-30.24 12.96-30.24 30.528zm100.224 0c0 20.736-6.912 37.728-20.448 50.688-13.536 12.96-29.952 19.296-49.536 19.296s-36-6.336-49.536-19.296c-13.536-12.96-20.16-29.952-20.16-50.688s6.624-37.44 20.16-50.4c13.536-12.96 29.952-19.296 49.536-19.296s36 6.336 49.536 19.296c13.536 12.96 20.448 29.664 20.448 50.4zm367.798 0c0 18.432 13.249 30.816 30.241 30.816 17.28 0 30.527-12.384 30.527-30.816 0-17.568-13.535-30.528-30.527-30.528s-30.241 12.96-30.241 30.528zm100.225 0c0 20.736-6.913 37.728-20.449 50.688-13.535 12.96-29.951 19.296-49.535 19.296-19.585 0-36-6.336-49.536-19.296-13.536-12.96-20.161-29.952-20.161-50.688s6.625-37.44 20.161-50.4c13.536-12.96 29.951-19.296 49.536-19.296 19.584 0 36 6.336 49.535 19.296 13.536 12.96 20.449 29.664 20.449 50.4zm88.773-116.64C508.881 10.368 520.113 0 533.937 0c13.536 0 24.48 10.368 24.48 23.328 0 12.96-10.944 23.616-24.48 23.616-13.824 0-25.056-10.656-25.056-23.616zm107.316 116.64c0 18.432 13.248 30.816 30.24 30.816 17.28 0 30.528-12.384 30.528-30.816 0-17.568-13.536-30.528-30.528-30.528-16.992 0-30.24 12.96-30.24 30.528zm100.224 0c0 20.736-6.912 37.728-20.448 50.688-13.536 12.96-29.952 19.296-49.536 19.296s-36-6.336-49.536-19.296c-13.536-12.96-20.16-29.952-20.16-50.688s6.624-37.44 20.16-50.4c13.536-12.96 29.952-19.296 49.536-19.296s36 6.336 49.536 19.296c13.536 12.96 20.448 29.664 20.448 50.4z" fill="#fff"/></g><defs><clipPath id="clip0"><path fill="#fff" d="M0 0h375v210H0z"/></clipPath></defs></svg>