<svg width="375" height="211" fill="none" xmlns="http://www.w3.org/2000/svg"><g clip-path="url(#clip0)"><path opacity=".1" fill-rule="evenodd" clip-rule="evenodd" d="M-284.54 51.505l22.393 73.623h-43.866l21.473-73.623zm-34.657 108.199h69.931l17.567 46.944h42.223l-72.7-196.432h-44.401l-72.985 196.432h42.797l17.568-46.944zm-16.875 47.944H-381l73.728-198.432h45.792l73.44 198.432h-44.352l-17.568-46.944h-68.544l-17.568 46.944zm51.552-152.64l-20.16 69.12h41.184l-21.024-69.12zm146.508 135.936l1.882-.472c6.391 11.949 21.518 19.056 38.574 19.056 17.588 0 32.594-6.228 45.077-18.995l.008-.008c12.743-12.744 19.003-29.467 19.003-49.693 0-20.807-6.262-37.528-19.003-50.269l-.008-.008C-64.97 77.78-79.98 71.272-97.556 71.272c-17.045 0-32.191 7.39-38.584 18.785l-1.872 3.337V1h-37.744v205.648h37.744v-15.704zm1 16.704h-39.744V0h39.744v89.568c.313-.559.647-1.108 1-1.648 7.1-10.852 21.994-17.648 38.456-17.648 17.856 0 33.12 6.624 45.792 19.584 12.96 12.96 19.296 29.952 19.296 50.976 0 20.448-6.336 37.44-19.296 50.4-12.672 12.96-27.936 19.296-45.792 19.296-16.462 0-31.356-6.534-38.456-17.86a28.705 28.705 0 01-1-1.724v16.704zm-.136-67.68c0-20.148 14.284-32.968 32.104-32.968 17.838 0 32.104 13.702 32.104 32.968 0 20.124-14.26 33.544-32.104 33.544-17.862 0-32.104-14.302-32.104-33.544zm189.514 31.816c-17.538 0-31.24-12.825-31.24-31.816 0-18.12 13.695-31.528 31.24-31.528 17.532 0 31.528 13.395 31.528 31.528 0 18.997-13.709 31.816-31.528 31.816zm48.844 18.15c13.319-12.753 20.14-29.474 20.14-49.966 0-20.488-6.818-36.922-20.14-49.678-13.338-12.77-29.502-19.018-48.844-19.018-19.343 0-35.506 6.247-48.845 19.018-13.314 12.748-19.851 29.179-19.851 49.678 0 20.503 6.54 37.22 19.851 49.966 13.339 12.771 29.502 19.018 48.845 19.018 19.342 0 35.506-6.247 48.844-19.018zm130.764 17.714h40.032V73.152h-40.032v71.136c0 18.72-10.368 27.36-24.192 27.36-11.808 0-23.904-7.488-23.904-26.784V73.152h-40.032v80.352c0 36.864 21.888 57.024 53.28 57.024 12.914 0 26.614-7.602 33.848-19.554.349-.576.683-1.162 1-1.758v18.432zM144.846 74.152v79.352c0 18.233 5.41 32.217 14.585 41.638 9.174 9.42 22.216 14.386 37.695 14.386 13.164 0 27.226-8.146 33.966-20.783l1.882.471v17.432h38.032V74.152h-38.032v70.136c0 9.542-2.645 16.658-7.19 21.393-4.548 4.737-10.88 6.967-18.002 6.967-6.107 0-12.348-1.937-17.069-6.432-4.735-4.507-7.835-11.486-7.835-21.352V74.152h-38.032zm172.04 0h-24.48v29.68h24.48v102.816h37.744V103.832h28.224v-29.68H354.63V22.6h-37.744v51.552zM355.63 21.6v51.552h28.224v31.68H355.63v102.816h-39.744V104.832h-24.48v-31.68h24.48V21.6h39.744zm210.598 140.403c-6.814 6.518-15.128 9.781-24.595 9.781-9.471 0-17.775-3.265-24.868-9.767l-.008-.007-.007-.007c-6.832-6.535-10.389-14.864-10.389-25.203V10.216h-40.912V136.8c0 21.633 7.387 39.205 22.415 52.532 15.079 13.371 32.986 20.196 53.769 20.196 20.784 0 38.687-6.825 53.473-20.19 14.746-13.328 22.135-30.904 22.135-52.538V10.216h-40.336V136.8c0 10.062-3.566 18.388-10.677 25.203zm9.677-25.203c0 9.792-3.456 17.856-10.368 24.48-6.624 6.336-14.688 9.504-23.904 9.504s-17.28-3.168-24.192-9.504c-6.624-6.336-10.08-14.4-10.08-24.48V9.216h-42.912V136.8c0 21.888 7.488 39.744 22.752 53.28 15.264 13.536 33.408 20.448 54.432 20.448s39.168-6.912 54.144-20.448c14.976-13.536 22.464-31.392 22.464-53.28V9.216h-42.336V136.8zm126.074 19.193l.009.002c4.789 1.306 8.28 2.793 10.579 4.78 2.364 2.044 3.406 4.562 3.406 7.705 0 3.726-2.041 6.745-5.202 8.827-3.145 2.071-7.442 3.256-12.183 3.405h-.031c-5.559 0-10.675-1.952-14.449-4.971-3.489-2.791-5.891-6.549-6.35-10.581h-35.483c.519 13.361 5.866 24.23 16.558 32.182 11.042 8.21 24.075 12.186 38.572 12.186 15.385 0 28.733-3.702 40.078-10.792l.009-.006c11.511-7.019 17.089-17.064 17.089-30.25 0-3.979-.286-7.716-1.977-11.823-1.695-4.116-4.835-8.684-10.672-14.236m.689-.725l-.689.725c-5.62-5.339-13.238-9.585-23.176-12.14l-.008-.003-22.755-6.048c-3.81-1.026-6.848-2.371-8.986-4.159-2.171-1.816-3.399-4.079-3.56-6.828l-.001-.011c-.161-3.381 1.308-6.217 4.014-8.167 2.671-1.925 6.499-2.961 11.097-2.961 5.149 0 9.153 1.026 11.922 3.202 2.583 2.03 3.96 4.954 4.281 8.606h35.762c-.503-14.483-5.851-25.044-15.949-31.867-10.467-7.073-23.225-10.773-38.32-10.773-13.906 0-25.789 3.968-35.976 11.608-10.202 7.651-15.164 16.034-15.441 25.725v.005c-.143 4.15-.068 7.302.559 10.54.625 3.233 1.811 6.602 3.947 11.16 4.413 8.529 16.431 16.2 35.068 21.075l17.569 4.608m-53.534-25.241c-4.32-9.216-4.896-13.824-4.608-22.176.288-10.08 5.472-18.72 15.84-26.496 10.368-7.776 22.464-11.808 36.576-11.808 15.264 0 28.224 3.744 38.88 10.944 10.422 7.042 15.885 17.94 16.389 32.696.012.331.02.665.027 1h-37.728c-.288-7.776-5.184-11.808-15.264-11.808-8.928 0-14.4 4.032-14.112 10.08.288 4.896 4.32 8.064 11.808 10.08l22.752 6.048c10.08 2.592 17.856 6.912 23.616 12.384 11.808 11.232 12.96 18.72 12.96 26.784 0 13.536-5.76 23.904-17.568 31.104-11.52 7.2-25.056 10.944-40.608 10.944-14.688 0-27.936-4.032-39.168-12.384-10.966-8.154-16.441-19.327-16.963-32.984a54.832 54.832 0 01-.029-1h37.44c.288 8.064 9.216 15.552 19.872 15.552 9.216-.288 16.416-4.608 16.416-11.232 0-5.76-3.744-8.928-13.248-11.52l-17.568-4.608c-18.72-4.896-31.104-12.672-35.712-21.6zM-105.044 108c-17.28 0-31.104 12.384-31.104 31.968 0 18.72 13.824 32.544 31.104 32.544s31.104-12.96 31.104-32.544c0-18.72-13.824-31.968-31.104-31.968zm127.17 31.968c0 18.432 13.248 30.816 30.24 30.816 17.28 0 30.528-12.384 30.528-30.816 0-17.568-13.536-30.528-30.528-30.528-16.992 0-30.24 12.96-30.24 30.528zm100.224 0c0 20.736-6.912 37.728-20.448 50.688-13.536 12.96-29.952 19.296-49.536 19.296s-36-6.336-49.536-19.296c-13.536-12.96-20.16-29.952-20.16-50.688s6.624-37.44 20.16-50.4c13.536-12.96 29.952-19.296 49.536-19.296s36 6.336 49.536 19.296c13.536 12.96 20.448 29.664 20.448 50.4z" fill="#fff"/></g><defs><clipPath id="clip0"><path fill="#fff" d="M0 0h375v211H0z"/></clipPath></defs></svg>