<svg width="375" height="279" fill="none" xmlns="http://www.w3.org/2000/svg"><g clip-path="url(#clip0)"><path opacity=".3" fill-rule="evenodd" clip-rule="evenodd" d="M-529.664 127.448h64.8V92.584h-64.8V45.368h81.792V10.216H-570v196.432h40.336v-79.2zm1 80.2H-571V9.216h124.128v37.152h-81.792v45.216h64.8v36.864h-64.8v79.2zm142.009 0h-40.032V0h40.032v207.648zm-1-206.648h-38.032v205.648h38.032V1zm131.637 206.648h39.744V73.152h-39.744v14.976c-.324-.455-.657-.9-1-1.335-9.424-11.963-25.941-16.521-38.168-16.521-18.144 0-33.984 6.624-47.808 19.584-13.824 12.96-20.736 29.664-20.736 50.4 0 20.736 6.912 37.728 20.736 50.688 13.824 12.96 29.664 19.296 47.808 19.296 6.336 0 13.536-1.44 21.312-4.608 7.381-2.9 13.074-6.765 16.856-11.816.35-.467.683-.944 1-1.432v15.264zm1-133.496V91.26l-1.815-2.553c-8.955-12.592-25.852-17.435-38.353-17.435-17.87 0-33.47 6.513-47.124 19.313-13.604 12.754-20.42 29.185-20.42 49.671 0 20.491 6.819 37.208 20.42 49.958 13.645 12.793 29.243 19.026 47.124 19.026 6.186 0 13.258-1.407 20.935-4.534l.011-.005c7.942-3.119 13.789-7.331 17.384-12.862l1.838-2.828v17.637h37.744V74.152h-37.744zm-57.826 89.89l-.008-.008c-6.833-6.238-10.406-14.283-10.406-23.778 0-9.505 3.58-17.258 10.406-23.49l.008-.008.007-.007c7.077-6.191 15.082-9.463 24.275-9.463 17.767 0 33.544 13.056 33.544 32.968 0 19.912-15.777 32.968-33.544 32.968-9.171 0-17.181-2.968-24.275-9.175l-.007-.007zm180.441-8.047c4.789 1.306 8.28 2.793 10.579 4.78 2.363 2.044 3.406 4.562 3.406 7.705 0 3.726-2.041 6.745-5.202 8.827-3.145 2.071-7.442 3.256-12.183 3.405h-.031c-5.559 0-10.675-1.952-14.449-4.971-3.489-2.791-5.891-6.549-6.35-10.581h-35.483c.519 13.361 5.866 24.23 16.558 32.182 11.042 8.21 24.075 12.186 38.572 12.186 15.385 0 28.733-3.702 40.078-10.792l.01-.006c11.51-7.019 17.088-17.064 17.088-30.25 0-3.979-.286-7.716-1.977-11.823-1.695-4.116-4.835-8.684-10.672-14.236-5.62-5.34-13.238-9.585-23.176-12.14l-.008-.003-22.752-6.048h-.003c-3.81-1.026-6.848-2.371-8.986-4.159-2.171-1.816-3.399-4.079-3.561-6.828v-.011c-.161-3.381 1.308-6.217 4.014-8.167 2.671-1.925 6.499-2.961 11.097-2.961 5.149 0 9.153 1.026 11.922 3.202 2.583 2.03 3.96 4.954 4.281 8.606h35.762c-.503-14.483-5.851-25.044-15.95-31.867-10.466-7.073-23.224-10.773-38.319-10.773-13.906 0-25.789 3.968-35.976 11.608-10.202 7.651-15.164 16.034-15.441 25.725v.005c-.143 4.15-.068 7.302.559 10.54.625 3.233 1.811 6.602 3.947 11.16 4.412 8.528 16.43 16.2 35.068 21.075l17.578 4.61zm-53.543-25.243c-4.32-9.216-4.896-13.824-4.608-22.176.288-10.08 5.472-18.72 15.84-26.496 10.368-7.776 22.464-11.808 36.576-11.808 15.264 0 28.224 3.744 38.88 10.944 10.422 7.042 15.885 17.94 16.39 32.696.01.331.02.665.026 1h-37.728c-.288-7.776-5.184-11.808-15.264-11.808-8.928 0-14.4 4.032-14.112 10.08.288 4.896 4.32 8.064 11.808 10.08l22.752 6.048c10.08 2.592 17.856 6.912 23.616 12.384 11.808 11.232 12.96 18.72 12.96 26.784 0 13.536-5.76 23.904-17.568 31.104-11.52 7.2-25.056 10.944-40.608 10.944-14.688 0-27.936-4.032-39.168-12.384-10.966-8.154-16.441-19.327-16.963-32.984a54.832 54.832 0 01-.029-1h37.44c.288 8.064 9.216 15.552 19.872 15.552 9.216-.288 16.416-4.608 16.416-11.232 0-5.76-3.744-8.928-13.248-11.52l-17.568-4.608c-18.72-4.896-31.104-12.672-35.712-21.6zM-16.373 0h-40.032v207.648h40.032v-71.136c0-18.72 12.096-27.36 26.784-27.36 12.96 0 24.768 10.368 24.768 26.784v71.712h40.032v-73.152c0-41.184-19.008-64.224-53.856-64.224-7.2 0-14.688 2.016-22.464 6.336-6.87 3.563-11.493 8.474-14.264 14.933a33.73 33.73 0 00-1 2.635V0zm90.584 206.648v-72.152c0-20.455-4.722-36.25-13.627-46.915-8.882-10.637-22.04-16.309-39.229-16.309-7.005 0-14.328 1.96-21.978 6.21l-.013.007-.012.007c-7.553 3.916-12.269 9.475-14.776 16.996l-1.949-.316V1h-38.032v205.648h38.032v-70.136c0-9.586 3.105-16.711 8.205-21.434 5.086-4.709 12.046-6.926 19.58-6.926 13.526 0 25.767 10.831 25.767 27.784v70.712h38.032zm79.55-53.04l-.008-.009c-11.121-12.292-16.675-27.223-16.675-44.735 0-17.793 5.55-32.73 16.679-44.739 11.132-12.302 24.936-18.469 41.634-18.469 20.459 0 36.7 8.535 48.637 25.53l32.625-22.48c-17.46-24.88-47.39-40.794-81.262-40.794-27.96 0-51.313 9.687-70.414 29.356-18.825 19.68-28.234 43.334-28.234 71.596 0 27.972 9.408 51.627 28.233 71.308 19.102 19.669 42.455 29.356 70.415 29.356 34.741 0 64.688-16.209 82.145-42.225l-32.359-22.487c-11.421 16.189-29.309 26.968-49.786 26.968-16.698 0-30.499-6.166-41.63-18.176zm90.595-9.363c.192-.272.382-.546.571-.821l33.984 23.616c-17.568 26.784-48.096 43.488-83.52 43.488-28.224 0-51.84-9.792-71.136-29.664-19.008-19.872-28.512-43.776-28.512-72 0-28.512 9.504-52.416 28.512-72.288 19.296-19.872 42.912-29.664 71.136-29.664 34.189 0 64.432 16.066 82.086 41.226l.316.455.254.367-34.269 23.614-.003.002-.348-.504c-11.776-16.944-27.788-25.416-48.036-25.416-16.417 0-29.952 6.048-40.896 18.144-10.944 11.808-16.417 26.496-16.417 44.064 0 17.28 5.473 31.968 16.417 44.064 10.944 11.808 24.479 17.856 40.896 17.856 20.105 0 37.704-10.58 48.965-26.539zm115.258 27.539c-17.538 0-31.241-12.825-31.241-31.816 0-18.12 13.696-31.528 31.241-31.528 17.531 0 31.527 13.395 31.527 31.528 0 18.997-13.708 31.816-31.527 31.816zm48.844 18.15c13.319-12.753 20.14-29.474 20.14-49.966 0-20.488-6.818-36.922-20.14-49.678-13.338-12.77-29.502-19.018-48.844-19.018-19.343 0-35.506 6.247-48.845 19.018-13.315 12.748-19.852 29.179-19.852 49.678 0 20.503 6.54 37.22 19.852 49.966 13.339 12.771 29.502 19.018 48.845 19.018 19.342 0 35.506-6.247 48.844-19.018zM579.136 74.152h-75.152V63.936c0-8.606 1.746-15.277 5.366-19.812 3.654-4.576 9.087-6.82 16.082-6.82h13.688V1h-13.688c-19.245 0-34.145 5.626-44.24 16.214-10.103 10.595-15.528 26.3-15.528 46.722v10.216H440.32v29.68h25.344v102.816h38.32V103.832h75.152v102.816h38.32V103.832h27.072v-29.68h-27.072V63.936c0-8.606 1.746-15.277 5.366-19.812 3.653-4.576 9.087-6.82 16.082-6.82h13.688V1h-13.688c-19.245 0-34.145 5.626-44.24 16.214-10.103 10.595-15.528 26.3-15.528 46.722v10.216zM638.904 0c-38.88 0-60.768 22.752-60.768 63.936v9.216h-73.152v-9.216c0-16.992 6.912-25.632 20.448-25.632h14.688V0h-14.688c-38.88 0-60.768 22.752-60.768 63.936v9.216H439.32v31.68h25.344v102.816h40.32V104.832h73.152v102.816h40.32V104.832h27.072v-31.68h-27.072v-9.216c0-16.992 6.912-25.632 20.448-25.632h14.688V0h-14.688zm154.053 153.504l.103-1.63c.25-3.939.473-7.458.473-10.754 0-21.024-6.624-38.016-19.872-50.976-12.96-13.248-29.376-19.872-48.96-19.872-19.872 0-36.576 6.336-50.112 19.296-13.536 12.96-20.16 29.664-20.16 50.4 0 20.736 6.624 37.728 20.16 50.976 13.536 12.96 30.24 19.584 50.112 19.584 28.078 0 48.336-8.938 60.773-26.539.181-.255.359-.512.536-.771l.035-.05-29.088-19.872c-6.624 8.352-16.416 12.672-29.376 12.672-15.477 0-30.404-7.423-32.961-21.464a22.9 22.9 0 01-.159-1h98.496zm-35.806 11.136c-6.834 8.16-16.741 12.328-29.57 12.328-16.035 0-31.992-7.893-34.111-23.328l-.156-1.136h98.704l.044-.692c.25-3.945.471-7.43.471-10.692 0-20.794-6.542-37.515-19.571-50.261l-.008-.008-.008-.008c-12.759-13.042-28.911-19.571-48.245-19.571-19.637 0-36.087 6.252-49.421 19.018-13.314 12.748-19.851 29.179-19.851 49.678 0 20.497 6.536 37.217 19.851 50.254 13.342 12.774 29.795 19.306 49.421 19.306 27.848 0 47.748-8.848 59.948-26.103l-27.498-18.785zm-63.341-35.192l.247-1.201c3.287-15.986 17.334-23.84 30.934-23.803 13.6.037 27.114 7.978 29.213 23.873l.15 1.131H693.81zm1.227-1h58.176c-.045-.337-.095-.67-.15-1-4.878-29.204-50.73-29.473-57.804 0-.079.33-.153.663-.222 1zm250.504 25.056l.102-1.63c.25-3.939.474-7.458.474-10.754 0-21.024-6.624-38.016-19.872-50.976-12.96-13.248-29.376-19.872-48.96-19.872-19.873 0-36.577 6.336-50.113 19.296-13.536 12.96-20.159 29.664-20.159 50.4 0 20.736 6.623 37.728 20.159 50.976 13.536 12.96 30.24 19.584 50.113 19.584 28.078 0 48.336-8.938 60.773-26.539.181-.255.359-.512.536-.771l.035-.05-29.088-19.872c-6.624 8.352-16.416 12.672-29.376 12.672-15.477 0-30.404-7.423-32.961-21.464a22.9 22.9 0 01-.159-1h98.496zm-35.806 11.136c-6.835 8.16-16.742 12.328-29.57 12.328-16.035 0-31.993-7.893-34.111-23.328l-.156-1.136h98.704l.043-.692c.251-3.945.472-7.43.472-10.692 0-20.794-6.543-37.515-19.572-50.261l-.008-.008-.007-.008c-12.759-13.042-28.911-19.571-48.245-19.571-19.638 0-36.087 6.252-49.421 19.018-13.315 12.748-19.851 29.179-19.851 49.678 0 20.497 6.535 37.217 19.851 50.254 13.342 12.774 29.795 19.306 49.421 19.306 27.847 0 47.748-8.848 59.947-26.103l-27.497-18.785zm-63.341-35.192l.247-1.201c3.287-15.986 17.334-23.84 30.934-23.803 13.6.037 27.114 7.978 29.213 23.873l.149 1.131h-60.543zm1.226-1h58.177c-.045-.337-.095-.67-.15-1-4.878-29.204-50.73-29.473-57.804 0-.079.33-.153.663-.223 1zm-1159.798 34.848c6.912 6.048 14.688 8.928 23.616 8.928 17.28 0 32.544-12.672 32.544-31.968s-15.264-31.968-32.544-31.968c-8.928 0-16.704 3.168-23.616 9.216-6.624 6.048-10.08 13.536-10.08 22.752s3.456 16.992 10.08 23.04zm641.551-23.328c0 18.432 13.249 30.816 30.241 30.816 17.279 0 30.527-12.384 30.527-30.816 0-17.568-13.535-30.528-30.527-30.528s-30.241 12.96-30.241 30.528zm100.225 0c0 20.736-6.913 37.728-20.449 50.688-13.535 12.96-29.951 19.296-49.535 19.296-19.585 0-36-6.336-49.536-19.296-13.536-12.96-20.161-29.952-20.161-50.688s6.625-37.44 20.161-50.4c13.536-12.96 29.951-19.296 49.536-19.296 19.584 0 36 6.336 49.535 19.296 13.536 12.96 20.449 29.664 20.449 50.4z" fill="#fff"/></g><defs><clipPath id="clip0"><path fill="#fff" d="M0 0h375v279H0z"/></clipPath></defs></svg>