<svg width="375" height="218" fill="none" xmlns="http://www.w3.org/2000/svg"><g clip-path="url(#clip0)"><path opacity=".3" fill-rule="evenodd" clip-rule="evenodd" d="M-875.329-14.416V146h40.624V-14.416h53.568v-36.016h-147.76v36.016h53.568zm-54.568-37.016h149.76v38.016h-53.568V147h-42.624V-13.416h-53.568v-38.016zM-759.352 147V12.504h39.744V147h-39.744zm38.744-1V13.504h-37.744V146h37.744zM-739.48-59.648c-13.343 0-24.056 9.989-24.056 22.328 0 12.355 10.73 22.616 24.056 22.616 13.015 0 23.48-10.24 23.48-22.616 0-12.361-10.448-22.328-23.48-22.328zm140.255 163.315l-.008.007c-6.788 6.198-14.511 9.478-23.427 9.478-18.102 0-33.256-13.678-33.256-33.832 0-19.025 15.178-32.68 33.256-32.68 18.048 0 33.544 12.762 33.544 32.68 0 9.759-3.267 17.802-10.1 24.339l-.009.008zm8.973-76.1c-7.172-10.882-22.853-17.943-39.32-17.943-18.144 0-33.696 6.624-47.232 19.872-13.248 12.96-19.872 29.952-19.872 50.688 0 20.448 6.624 37.152 19.872 50.112 13.536 12.96 29.088 19.584 47.232 19.584 16.479 0 32.696-7.072 39.409-17.968.327-.53.631-1.068.911-1.616.04.631.074 1.256.103 1.874 1.419 30.713-10.999 45.934-37.255 45.934-13.474 0-28.591-8.756-33.614-20.668-.13-.308-.253-.619-.37-.932l-32.256 15.84c11.52 25.344 36.576 41.76 66.24 41.76 48.672 0 76.032-29.088 76.032-85.824V12.504h-38.88v16.704a26.596 26.596 0 00-1-1.64zm2-14.063v19.53l-1.872-3.337c-6.39-11.392-22.397-19.073-39.448-19.073-17.865 0-33.171 6.51-46.532 19.587-13.031 12.747-19.572 29.469-19.572 49.973 0 20.207 6.535 36.642 19.567 49.393 13.364 12.793 28.672 19.303 46.537 19.303 8.497 0 16.917-1.913 23.941-5.266 7.034-3.358 12.595-8.122 15.489-13.774l1.659-3.239.229 3.632c1.015 16.092-1.576 28.335-7.985 36.569-6.44 8.275-16.575 12.302-30.165 12.302-7.122 0-14.646-2.369-20.976-6.307-5.988-3.725-10.984-8.904-13.537-14.919l-30.409 14.933c11.531 24.479 35.988 40.293 64.922 40.293 24.134 0 42.839-7.205 55.525-21.305 12.702-14.117 19.507-35.297 19.507-63.519V13.504h-36.88zm109.131-74.152h-40.032V147h40.032V75.864c0-18.72 12.096-27.36 26.784-27.36 12.96 0 24.768 10.368 24.768 26.784V147h40.032V73.848c0-41.184-19.008-64.224-53.856-64.224-7.2 0-14.688 2.016-22.464 6.336-6.871 3.563-11.493 8.474-14.264 14.933-.365.852-.698 1.73-1 2.635v-94.176zM-388.537 146V73.848c0-20.455-4.722-36.25-13.628-46.915-8.881-10.637-22.039-16.309-39.228-16.309-7.006 0-14.328 1.96-21.978 6.21l-.013.007-.013.007c-7.552 3.916-12.268 9.475-14.775 16.996l-1.949-.316v-93.176h-38.032V146h38.032V75.864c0-9.586 3.105-16.712 8.205-21.434 5.086-4.71 12.046-6.926 19.579-6.926 13.527 0 25.768 10.83 25.768 27.784V146h38.032zm44.077-132.496h-24.48v29.68h24.48V146h37.744V43.184h28.224v-29.68h-28.224v-51.552h-37.744v51.552zm38.744-52.552v51.552h28.224v31.68h-28.224V147h-39.744V44.184h-24.48v-31.68h24.48v-51.552h39.744zm87.044 51.552h-40.032V147h40.032v-46.944c0-35.712 11.232-53.568 33.408-53.568 7.611 0 14.196 1.283 19.513 3.607.316.138.628.28.935.425l7.2-36c-6.624-3.168-14.112-4.896-23.04-4.896-14.544 0-29.872 10.981-37.016 32.197a69.203 69.203 0 00-1 3.227V12.504zm59.921 2.589l-6.799 33.999c-5.432-2.335-12.089-3.604-19.714-3.604-11.41 0-20.094 4.623-25.868 13.862-5.727 9.162-8.54 22.777-8.54 40.706V146h-38.032V13.504h38.032v31.544l1.962.273c6.537-23.021 22.353-34.697 37.054-34.697 8.475 0 15.6 1.58 21.905 4.469zm75.45 96.043c-17.538 0-31.24-12.825-31.24-31.816 0-18.12 13.696-31.528 31.24-31.528 17.532 0 31.528 13.395 31.528 31.528 0 18.997-13.708 31.816-31.528 31.816zm48.845 18.15c13.319-12.753 20.139-29.474 20.139-49.966 0-20.487-6.817-36.922-20.14-49.678-13.338-12.77-29.501-19.018-48.844-19.018s-35.506 6.247-48.844 19.018c-13.315 12.749-19.852 29.18-19.852 49.678 0 20.503 6.54 37.22 19.852 49.966 13.338 12.771 29.501 19.018 48.844 19.018s35.506-6.247 48.845-19.018zm83.82-116.782H9.62v200.448h39.744v-82.368c.313.559.647 1.108 1 1.648 7.1 10.852 21.994 17.648 38.456 17.648 17.855 0 33.12-6.624 45.792-19.584 12.96-12.96 19.296-29.952 19.296-50.976 0-20.448-6.336-37.152-19.296-50.112C121.94 16.248 106.675 9.624 88.82 9.624c-16.462 0-31.356 6.534-38.456 17.86a28.974 28.974 0 00-1 1.724V12.504zm-1 199.448v-85.195l1.872 3.338c6.393 11.396 21.54 18.785 38.584 18.785 17.576 0 32.585-6.508 45.077-19.283l.007-.008c12.742-12.741 19.004-29.462 19.004-50.269 0-20.222-6.257-36.658-19.004-49.405l-.008-.008c-12.491-12.775-27.5-19.283-45.076-19.283-17.056 0-32.184 7.107-38.575 19.056l-1.881-.472V13.504H10.62v198.448h37.744zm.864-131.768c0-19.242 14.242-33.544 32.104-33.544 17.85 0 32.104 13.714 32.104 33.544 0 19.266-14.266 32.968-32.105 32.968-17.82 0-32.104-12.82-32.104-32.968zm258.346 12.672l.102-1.63c.25-3.939.474-7.458.474-10.754 0-21.024-6.624-38.016-19.872-50.976-12.96-13.248-29.376-19.872-48.96-19.872-19.872 0-36.576 6.336-50.112 19.296-13.536 12.96-20.16 29.664-20.16 50.4 0 20.736 6.624 37.728 20.16 50.976 13.536 12.96 30.24 19.584 50.112 19.584 28.078 0 48.336-8.938 60.773-26.539.181-.255.359-.512.536-.771l.035-.05-29.088-19.872c-6.624 8.352-16.416 12.672-29.376 12.672-15.477 0-30.404-7.423-32.961-21.464-.06-.33-.113-.663-.159-1h98.496zm-35.806 11.136c-6.835 8.16-16.742 12.328-29.57 12.328-16.035 0-31.993-7.893-34.111-23.328l-.156-1.136h98.704l.043-.692c.251-3.945.472-7.43.472-10.692 0-20.794-6.542-37.515-19.572-50.261l-.008-.008-.007-.008c-12.759-13.042-28.911-19.571-48.245-19.571-19.637 0-36.087 6.252-49.421 19.018-13.315 12.749-19.851 29.18-19.851 49.678 0 20.497 6.535 37.217 19.851 50.254 13.342 12.774 29.795 19.306 49.421 19.306 27.848 0 47.748-8.848 59.947-26.103l-27.497-18.785zM208.427 68.8l.247-1.201c3.287-15.986 17.334-23.84 30.934-23.803 13.6.037 27.114 7.978 29.213 23.873l.149 1.131h-60.543zm1.227-1h58.176c-.045-.337-.095-.67-.15-1-4.878-29.204-50.73-29.473-57.804 0-.079.33-.153.663-.222 1zM445.64 92.96l-.008-.009c-11.121-12.291-16.674-27.223-16.674-44.735 0-17.794 5.55-32.731 16.68-44.742 11.133-12.3 24.935-18.466 41.632-18.466 20.459 0 36.7 8.535 48.638 25.53l32.624-22.48c-17.46-24.88-47.39-40.794-81.262-40.794-27.962 0-51.317 9.688-70.419 29.36-18.821 19.68-28.229 43.332-28.229 71.592 0 27.97 9.407 51.623 28.229 71.303 19.102 19.673 42.457 29.361 70.419 29.361 34.742 0 64.689-16.209 82.146-42.225l-32.36-22.487c-11.421 16.189-29.309 26.968-49.786 26.968-16.698 0-30.498-6.166-41.63-18.176zm90.598-9.367c.191-.27.38-.543.568-.817l33.984 23.616c-17.568 26.784-48.096 43.488-83.52 43.488-28.224 0-51.84-9.792-71.136-29.664-19.008-19.872-28.512-43.776-28.512-72 0-28.512 9.504-52.416 28.512-72.288 19.296-19.872 42.912-29.664 71.136-29.664 34.189 0 64.432 16.066 82.086 41.226.1.142.199.284.297.427.092.131.182.263.273.395l-34.272 23.616-.339-.492c-11.777-16.952-27.792-25.428-48.045-25.428-16.416 0-29.952 6.048-40.896 18.144-10.944 11.808-16.416 26.496-16.416 44.064 0 17.28 5.472 31.968 16.416 44.064 10.944 11.808 24.48 17.856 40.896 17.856 20.107 0 37.708-10.582 48.968-26.543zm105.323 7.945l-.009-.009c-11.407-11.992-17.267-26.35-17.267-43.313 0-16.962 5.86-31.32 17.267-43.313 11.427-12.013 25.516-17.879 42.197-17.879 16.679 0 30.767 5.865 42.193 17.875 11.699 11.994 17.559 26.355 17.559 43.317 0 16.676-5.862 31.036-17.559 43.03-11.426 12.009-25.514 17.874-42.193 17.874-16.68 0-30.764-5.864-42.188-17.582zm83.66-.986c11.52-11.808 17.28-25.92 17.28-42.336 0-16.704-5.76-30.816-17.28-42.624-11.232-11.808-25.056-17.568-41.472-17.568s-30.24 5.76-41.472 17.568c-11.232 11.808-16.992 25.92-16.992 42.624s5.76 30.816 16.992 42.624c11.232 11.52 25.056 17.28 41.472 17.28s30.24-5.76 41.472-17.568zm-112.184 28.962c19.392 19.677 43.038 29.366 70.712 29.366 27.674 0 51.319-9.689 70.712-29.366 19.397-19.682 29.088-43.621 29.088-71.298 0-27.963-9.69-51.615-29.088-71.298l-.006-.005c-19.105-19.676-42.749-29.649-70.706-29.649-27.667 0-51.315 9.971-70.712 29.654-19.111 19.684-28.8 43.336-28.8 71.298 0 27.675 9.69 51.615 28.8 71.298zm324.072-106.01h-75.152V3.288c0-8.607 1.746-15.277 5.366-19.812 3.654-4.576 9.087-6.82 16.082-6.82h13.688v-36.304h-13.688c-19.245 0-34.145 5.626-44.24 16.214-10.103 10.595-15.528 26.3-15.528 46.722v10.216h-25.344v29.68h25.344V146h38.32V43.184h75.152V146h38.32V43.184h27.071v-29.68h-27.071V3.288c0-8.607 1.746-15.277 5.366-19.812 3.653-4.576 9.087-6.82 16.082-6.82h13.683v-36.304h-13.683c-19.245 0-34.145 5.626-44.24 16.214-10.103 10.595-15.528 26.3-15.528 46.722v10.216zm59.768-74.152c-38.88 0-60.768 22.752-60.768 63.936v9.216h-73.152V3.288c0-16.992 6.912-25.632 20.448-25.632h14.688v-38.304h-14.688c-38.88 0-60.768 22.752-60.768 63.936v9.216h-25.344v31.68h25.344V147h40.32V44.184h73.152V147h40.32V44.184h27.071v-31.68h-27.071V3.288c0-16.992 6.912-25.632 20.448-25.632h14.683v-38.304h-14.683zM1150.93 92.856c.03-.547.07-1.086.1-1.617.25-3.944.48-7.467.48-10.767 0-21.024-6.63-38.016-19.88-50.976-12.96-13.248-29.37-19.872-48.96-19.872-19.87 0-36.57 6.336-50.11 19.296-13.53 12.96-20.16 29.664-20.16 50.4 0 20.736 6.63 37.728 20.16 50.976 13.54 12.96 30.24 19.584 50.11 19.584 28.08 0 48.34-8.938 60.78-26.539.19-.271.38-.545.57-.821l-29.09-19.872c-6.62 8.352-16.42 12.672-29.38 12.672-15.47 0-30.4-7.423-32.96-21.464-.06-.33-.11-.663-.16-1h98.5zm-35.81 11.136c-6.83 8.16-16.74 12.328-29.57 12.328-16.03 0-31.99-7.893-34.11-23.328l-.15-1.136h98.7c.02-.23.03-.46.04-.688.25-3.946.48-7.433.48-10.696 0-20.794-6.55-37.515-19.58-50.261v-.008l-.01-.008c-12.76-13.042-28.91-19.571-48.25-19.571-19.63 0-36.08 6.252-49.42 19.018-13.31 12.749-19.85 29.18-19.85 49.678 0 20.497 6.54 37.217 19.85 50.254 13.34 12.774 29.8 19.306 49.42 19.306 27.85 0 47.75-8.848 59.95-26.103l-27.5-18.785zM1051.78 68.8l.25-1.201c3.29-15.986 17.33-23.84 30.93-23.803 13.6.037 27.12 7.978 29.22 23.873l.15 1.131h-60.55zm1.23-1h58.18l-.15-1c-4.88-29.204-50.73-29.473-57.81 0-.08.33-.15.663-.22 1zm250.5 25.056c.04-.547.07-1.086.11-1.617.25-3.944.47-7.467.47-10.767 0-21.024-6.62-38.016-19.87-50.976-12.96-13.248-29.38-19.872-48.96-19.872-19.87 0-36.58 6.336-50.11 19.296-13.54 12.96-20.16 29.664-20.16 50.4 0 20.736 6.62 37.728 20.16 50.976 13.53 12.96 30.24 19.584 50.11 19.584 28.08 0 48.33-8.938 60.77-26.539.19-.271.38-.545.57-.821l-29.09-19.872c-6.62 8.352-16.41 12.672-29.37 12.672-15.48 0-30.41-7.423-32.96-21.464-.06-.33-.12-.663-.16-1h98.49zm-35.8 11.136c-6.84 8.16-16.74 12.328-29.57 12.328-16.04 0-31.99-7.893-34.11-23.328l-.16-1.136h98.7c.02-.23.03-.46.05-.688.25-3.946.47-7.433.47-10.696 0-20.794-6.54-37.515-19.57-50.261l-.01-.008-.01-.008c-12.76-13.042-28.91-19.571-48.24-19.571-19.64 0-36.09 6.252-49.42 19.018-13.32 12.749-19.85 29.18-19.85 49.678 0 20.5 6.53 37.224 19.86 50.261 13.34 12.769 29.79 19.299 49.41 19.299 27.85 0 47.75-8.848 59.95-26.103l-27.5-18.785zM1204.37 68.8l.24-1.201c3.29-15.986 17.34-23.84 30.94-23.803 13.6.037 27.11 7.978 29.21 23.873l.15 1.131h-60.54zm1.22-1h58.18c-.04-.337-.09-.67-.15-1-4.88-29.204-50.73-29.473-57.8 0-.08.33-.16.663-.23 1zM-764.536-37.32c0-12.96 11.232-23.328 25.056-23.328 13.536 0 24.48 10.368 24.48 23.328 0 12.96-10.944 23.616-24.48 23.616-13.824 0-25.056-10.656-25.056-23.616zm164.628 140.256c6.624-6.336 9.792-14.112 9.792-23.616 0-19.296-14.976-31.68-32.544-31.68-17.568 0-32.256 13.248-32.256 31.68 0 19.584 14.688 32.832 32.256 32.832 8.64 0 16.128-3.168 22.752-9.216zm486.367-23.616c0 18.432 13.248 30.816 30.24 30.816 17.28 0 30.528-12.384 30.528-30.816 0-17.568-13.536-30.528-30.528-30.528-16.992 0-30.24 12.96-30.24 30.528zm100.224 0c0 20.736-6.912 37.728-20.448 50.688-13.536 12.96-29.952 19.296-49.536 19.296s-36-6.336-49.536-19.296c-13.536-12.96-20.16-29.952-20.16-50.688s6.624-37.44 20.16-50.4c13.536-12.96 29.952-19.296 49.536-19.296s36 6.336 49.536 19.296c13.536 12.96 20.448 29.664 20.448 50.4zm94.649-31.68c-17.28 0-31.104 13.824-31.104 32.544 0 19.584 13.824 31.968 31.104 31.968s31.104-13.248 31.104-31.968c0-19.296-13.825-32.544-31.105-32.544zm530.993 72.576c-19.296-19.872-29.088-44.064-29.088-72 0-28.224 9.792-52.128 29.088-72 19.584-19.872 43.488-29.952 71.424-29.952 28.224 0 52.128 10.08 71.424 29.952 19.584 19.872 29.376 43.776 29.376 72 0 27.936-9.792 52.128-29.376 72-19.584 19.872-43.488 29.664-71.424 29.664-27.936 0-51.84-9.792-71.424-29.664z" fill="#fff"/></g><defs><clipPath id="clip0"><path fill="#fff" d="M0 0h375v218H0z"/></clipPath></defs></svg>