<svg width="66" height="44" fill="none" xmlns="http://www.w3.org/2000/svg"><path opacity=".1" d="M65.094 31.863c0 3.258-1.238 6.06-3.714 8.406-2.346 2.215-5.278 3.323-8.796 3.323-4.822 0-8.862-1.695-12.12-5.083-3.128-3.388-4.691-7.754-4.691-13.097 0-9.774 3.779-16.746 11.337-20.916C52.584 1.499 57.014 0 60.403 0c1.433 0 2.15.521 2.15 1.564 0 .912-.782 1.564-2.346 1.955-10.816 2.867-16.224 8.275-16.224 16.224 0 3.519.912 6.516 2.736 8.992.26-4.43 3.063-6.646 8.406-6.646 2.867 0 5.212.977 7.037 2.932 1.955 1.825 2.932 4.105 2.932 6.842zm-35.968 0c0 3.258-1.238 6.06-3.714 8.406-2.346 2.215-5.213 3.323-8.6 3.323-4.953 0-8.993-1.695-12.12-5.083C1.563 34.991 0 30.56 0 25.217c0-9.644 3.78-16.55 11.338-20.721C16.81 1.499 21.177 0 24.435 0c1.433 0 2.15.521 2.15 1.564 0 .912-.782 1.564-2.346 1.955C13.553 6.386 8.21 11.859 8.21 19.939c0 3.388.912 6.32 2.737 8.796.26-4.43 2.997-6.646 8.21-6.646 2.867 0 5.213.977 7.037 2.932 1.955 1.825 2.932 4.105 2.932 6.842z" fill="#fff"/></svg>